<svg xmlns="http://www.w3.org/2000/svg" width="1506" height="1495" viewBox="0 0 1506 1495" fill="none"><path d="M0 747.5C1.7459e-05 549.251 79.3337 359.121 220.549 218.938C361.763 78.7543 553.292 2.12691e-05 753 0C952.708 -2.12691e-05 1144.24 78.7542 1285.45 218.938C1426.67 359.121 1506 549.25 1506 747.5L1059.95 747.5C1059.95 666.688 1027.61 589.185 970.043 532.042C912.48 474.899 834.407 442.797 753 442.797C671.593 442.797 593.52 474.899 535.957 532.042C478.394 589.185 446.055 666.688 446.055 747.5L0 747.5Z" fill="#DDB587"></path><path d="M1506 747.5C1506 945.749 1426.67 1135.88 1285.45 1276.06C1144.24 1416.25 952.708 1495 753 1495C553.292 1495 361.764 1416.25 220.549 1276.06C79.3338 1135.88 3.01551e-05 945.749 0 747.5L753 747.5H1506Z" fill="#818965"></path><path d="M823.568 1270.51C823.568 1353.5 843.889 1348.53 736.993 1348.93C707.229 1348.93 696.353 1337.18 697.856 1310.39C706.537 1162.11 714.908 1013.79 722.97 865.461C725.116 827.527 727.048 789.593 729.051 751.659C730.125 730.779 738.496 719.634 764.111 720.171C789.725 720.708 793.446 733.062 794.448 751.995C803.94 924.812 813.647 1097.65 823.568 1270.51Z" fill="black"></path><path d="M785.862 374.402C785.862 435.768 786.22 497.2 785.862 558.633C785.862 570.852 790.584 587.637 768.905 589.92C751.375 591.733 737.423 592.001 722.97 574.948C684.905 530.031 697.856 482.228 705.655 433.955C719.44 348.911 733.32 264.047 747.296 179.361C749.371 166.874 746.223 146.933 764.254 147C786.434 147 785.003 169.022 785.29 183.457C786.363 247.105 785.719 311.022 785.719 374.469L785.862 374.402Z" fill="black"></path><path d="M762.68 709.294C747.159 709.066 732.304 703.341 721.092 693.269C709.88 683.196 703.139 669.518 702.22 654.978C701.953 647.739 703.231 640.523 705.979 633.755C708.728 626.986 712.891 620.802 718.225 615.566C723.558 610.33 729.954 606.148 737.035 603.265C744.117 600.383 751.741 598.859 759.46 598.783C774.978 597.805 790.275 602.642 801.998 612.232C813.721 621.823 820.912 635.384 821.994 649.943C822.147 665.098 816.067 679.724 805.019 690.779C793.971 701.834 778.807 708.465 762.68 709.294Z" fill="black"></path><path d="M1014.03 804.364C956.794 774.084 899.984 743.938 843.316 713.323C832.083 707.213 814.124 702.916 822.71 684.117C829.865 668.876 836.304 657.261 859.272 653.904C919.588 644.974 957.581 679.081 998.508 709.294C1070.49 762.379 1142.37 815.531 1214.16 868.751C1224.68 876.539 1244.78 883.857 1235.62 898.494C1224.53 916.554 1205 904.67 1191.41 897.755C1131.88 867.274 1073.13 835.382 1014.11 803.76L1014.03 804.364Z" fill="black"></path><path d="M476.981 747.9C535.438 720.171 593.679 692.241 652.421 665.117C664.084 659.678 677.893 648.13 689.77 665.117C699.43 679.014 706.012 690.63 696.281 710.436C670.667 762.469 619.437 773.211 569.925 788.385C482.92 815.241 395.916 841.873 308.911 868.281C296.104 872.175 278.502 883.79 270.489 868.617C260.687 850.019 282.08 841.291 295.746 834.577C355.776 805.035 416.593 776.837 477.196 748.168L476.981 747.9Z" fill="black"></path></svg>