<svg xmlns="http://www.w3.org/2000/svg" width="1669" height="168" viewBox="0 0 1669 168" fill="none"><g clip-path="url(#clip0_176_45)"><path d="M475.37 94.2C475.37 92.0667 474.57 90.3333 472.97 89C471.437 87.6667 469.47 86.4667 467.07 85.4C464.737 84.2667 462.17 83.1333 459.37 82C456.637 80.8 454.07 79.3667 451.67 77.7C449.337 75.9667 447.37 73.8333 445.77 71.3C444.237 68.7667 443.47 65.5333 443.47 61.6C443.47 58.2 444.037 55.2667 445.17 52.8C446.303 50.2667 447.903 48.1667 449.97 46.5C452.103 44.8333 454.603 43.6 457.47 42.8C460.337 42 463.537 41.6 467.07 41.6C471.137 41.6 474.97 41.9667 478.57 42.7C482.17 43.3667 485.137 44.3667 487.47 45.7L483.17 57.2C481.703 56.2667 479.503 55.4333 476.57 54.7C473.637 53.9 470.47 53.5 467.07 53.5C463.87 53.5 461.403 54.1333 459.67 55.4C458.003 56.6667 457.17 58.3667 457.17 60.5C457.17 62.5 457.937 64.1667 459.47 65.5C461.07 66.8333 463.037 68.0667 465.37 69.2C467.77 70.3333 470.337 71.5 473.07 72.7C475.87 73.9 478.437 75.3667 480.77 77.1C483.17 78.7667 485.137 80.8667 486.67 83.4C488.27 85.8667 489.07 88.9667 489.07 92.7C489.07 96.4333 488.437 99.6667 487.17 102.4C485.97 105.067 484.237 107.3 481.97 109.1C479.77 110.9 477.07 112.233 473.87 113.1C470.737 113.967 467.27 114.4 463.47 114.4C458.47 114.4 454.07 113.933 450.27 113C446.47 112.067 443.67 111.133 441.87 110.2L446.27 98.5C447.003 98.9 447.937 99.3333 449.07 99.8C450.27 100.267 451.603 100.7 453.07 101.1C454.537 101.5 456.07 101.833 457.67 102.1C459.337 102.367 461.037 102.5 462.77 102.5C466.837 102.5 469.937 101.833 472.07 100.5C474.27 99.1 475.37 97 475.37 94.2ZM533.297 109.9C531.297 111.367 528.864 112.467 525.997 113.2C523.197 114 520.297 114.4 517.297 114.4C513.297 114.4 509.897 113.767 507.097 112.5C504.364 111.233 502.131 109.467 500.397 107.2C498.664 104.867 497.397 102.067 496.597 98.8C495.864 95.5333 495.497 91.9333 495.497 88C495.497 79.5333 497.397 73.0333 501.197 68.5C504.997 63.9 510.531 61.6 517.797 61.6C521.464 61.6 524.397 61.9 526.597 62.5C528.864 63.1 530.897 63.8667 532.697 64.8L529.597 75.4C528.064 74.6667 526.531 74.1 524.997 73.7C523.531 73.3 521.831 73.1 519.897 73.1C516.297 73.1 513.564 74.3 511.697 76.7C509.831 79.0333 508.897 82.8 508.897 88C508.897 90.1333 509.131 92.1 509.597 93.9C510.064 95.7 510.764 97.2667 511.697 98.6C512.631 99.9333 513.831 101 515.297 101.8C516.831 102.533 518.597 102.9 520.597 102.9C522.797 102.9 524.664 102.633 526.197 102.1C527.731 101.5 529.097 100.8 530.297 100L533.297 109.9ZM542.359 63H555.359V113H542.359V63ZM540.459 48.9C540.459 46.9667 541.159 45.3333 542.559 44C544.026 42.6 546.026 41.9 548.559 41.9C551.092 41.9 553.126 42.6 554.659 44C556.259 45.3333 557.059 46.9667 557.059 48.9C557.059 50.8333 556.259 52.4667 554.659 53.8C553.126 55.0667 551.092 55.7 548.559 55.7C546.026 55.7 544.026 55.0667 542.559 53.8C541.159 52.4667 540.459 50.8333 540.459 48.9ZM608.014 108.7C606.014 110.3 603.281 111.667 599.814 112.8C596.414 113.867 592.781 114.4 588.914 114.4C580.848 114.4 574.948 112.067 571.214 107.4C567.481 102.667 565.614 96.2 565.614 88C565.614 79.2 567.714 72.6 571.914 68.2C576.114 63.8 582.014 61.6 589.614 61.6C592.148 61.6 594.614 61.9333 597.014 62.6C599.414 63.2667 601.548 64.3667 603.414 65.9C605.281 67.4333 606.781 69.5 607.914 72.1C609.048 74.7 609.614 77.9333 609.614 81.8C609.614 83.2 609.514 84.7 609.314 86.3C609.181 87.9 608.948 89.5667 608.614 91.3H578.614C578.814 95.5 579.881 98.6667 581.814 100.8C583.814 102.933 587.014 104 591.414 104C594.148 104 596.581 103.6 598.714 102.8C600.914 101.933 602.581 101.067 603.714 100.2L608.014 108.7ZM589.414 72C586.014 72 583.481 73.0333 581.814 75.1C580.214 77.1 579.248 79.8 578.914 83.2H597.514C597.781 79.6 597.214 76.8333 595.814 74.9C594.481 72.9667 592.348 72 589.414 72ZM649.396 113V84.6C649.396 80.5333 648.796 77.6 647.596 75.8C646.462 74 644.496 73.1 641.696 73.1C639.229 73.1 637.129 73.8333 635.396 75.3C633.729 76.7 632.529 78.4667 631.796 80.6V113H618.796V63H629.096L630.596 69.6H630.996C632.529 67.4667 634.562 65.6 637.096 64C639.629 62.4 642.896 61.6 646.896 61.6C649.362 61.6 651.562 61.9333 653.496 62.6C655.429 63.2667 657.062 64.3667 658.396 65.9C659.729 67.4333 660.729 69.5333 661.396 72.2C662.062 74.8 662.396 78.0333 662.396 81.9V113H649.396ZM708.688 109.9C706.688 111.367 704.255 112.467 701.388 113.2C698.588 114 695.688 114.4 692.688 114.4C688.688 114.4 685.288 113.767 682.488 112.5C679.755 111.233 677.521 109.467 675.788 107.2C674.055 104.867 672.788 102.067 671.988 98.8C671.255 95.5333 670.888 91.9333 670.888 88C670.888 79.5333 672.788 73.0333 676.588 68.5C680.388 63.9 685.921 61.6 693.188 61.6C696.855 61.6 699.788 61.9 701.988 62.5C704.255 63.1 706.288 63.8667 708.088 64.8L704.988 75.4C703.455 74.6667 701.921 74.1 700.388 73.7C698.921 73.3 697.221 73.1 695.288 73.1C691.688 73.1 688.955 74.3 687.088 76.7C685.221 79.0333 684.288 82.8 684.288 88C684.288 90.1333 684.521 92.1 684.988 93.9C685.455 95.7 686.155 97.2667 687.088 98.6C688.021 99.9333 689.221 101 690.688 101.8C692.221 102.533 693.988 102.9 695.988 102.9C698.188 102.9 700.055 102.633 701.588 102.1C703.121 101.5 704.488 100.8 705.688 100L708.688 109.9ZM754.889 108.7C752.889 110.3 750.156 111.667 746.689 112.8C743.289 113.867 739.656 114.4 735.789 114.4C727.723 114.4 721.823 112.067 718.089 107.4C714.356 102.667 712.489 96.2 712.489 88C712.489 79.2 714.589 72.6 718.789 68.2C722.989 63.8 728.889 61.6 736.489 61.6C739.023 61.6 741.489 61.9333 743.889 62.6C746.289 63.2667 748.423 64.3667 750.289 65.9C752.156 67.4333 753.656 69.5 754.789 72.1C755.923 74.7 756.489 77.9333 756.489 81.8C756.489 83.2 756.389 84.7 756.189 86.3C756.056 87.9 755.823 89.5667 755.489 91.3H725.489C725.689 95.5 726.756 98.6667 728.689 100.8C730.689 102.933 733.889 104 738.289 104C741.023 104 743.456 103.6 745.589 102.8C747.789 101.933 749.456 101.067 750.589 100.2L754.889 108.7ZM736.289 72C732.889 72 730.356 73.0333 728.689 75.1C727.089 77.1 726.123 79.8 725.789 83.2H744.389C744.656 79.6 744.089 76.8333 742.689 74.9C741.356 72.9667 739.223 72 736.289 72ZM792.664 43H806.364V113H792.664V43ZM847.879 113V85.8C847.879 81.2 847.446 77.9333 846.579 76C845.713 74.0667 843.913 73.1 841.179 73.1C838.913 73.1 837.079 73.7333 835.679 75C834.279 76.2 833.213 77.7667 832.479 79.7V113H819.479V63H829.579L831.079 69.6H831.479C833.013 67.4667 834.946 65.6 837.279 64C839.679 62.4 842.746 61.6 846.479 61.6C849.679 61.6 852.279 62.2667 854.279 63.6C856.346 64.8667 857.946 67.0333 859.079 70.1C860.613 67.5 862.579 65.4333 864.979 63.9C867.379 62.3667 870.279 61.6 873.679 61.6C876.479 61.6 878.846 61.9333 880.779 62.6C882.779 63.2667 884.379 64.4333 885.579 66.1C886.846 67.7 887.779 69.8667 888.379 72.6C888.979 75.3333 889.279 78.8 889.279 83V113H876.279V84.9C876.279 80.9667 875.846 78.0333 874.979 76.1C874.179 74.1 872.346 73.1 869.479 73.1C867.146 73.1 865.279 73.7333 863.879 75C862.546 76.2667 861.546 78 860.879 80.2V113H847.879ZM899.948 63H909.448L910.948 69H911.348C913.081 66.4667 915.115 64.6 917.448 63.4C919.848 62.2 922.748 61.6 926.148 61.6C932.415 61.6 937.115 63.6 940.248 67.6C943.381 71.5333 944.948 77.9 944.948 86.7C944.948 90.9667 944.448 94.8333 943.448 98.3C942.448 101.7 940.948 104.6 938.948 107C937.015 109.4 934.615 111.233 931.748 112.5C928.948 113.767 925.715 114.4 922.048 114.4C919.981 114.4 918.281 114.233 916.948 113.9C915.615 113.633 914.281 113.167 912.948 112.5V133H899.948V63ZM922.248 72.6C919.715 72.6 917.715 73.2333 916.248 74.5C914.848 75.7667 913.748 77.6667 912.948 80.2V101C913.881 101.733 914.881 102.333 915.948 102.8C917.081 103.2 918.548 103.4 920.348 103.4C924.081 103.4 926.881 102.1 928.748 99.5C930.615 96.8333 931.548 92.4667 931.548 86.4C931.548 82 930.815 78.6 929.348 76.2C927.881 73.8 925.515 72.6 922.248 72.6ZM953.652 65.9C956.319 64.7 959.485 63.7667 963.152 63.1C966.819 62.3667 970.652 62 974.652 62C978.119 62 981.019 62.4333 983.352 63.3C985.685 64.1 987.519 65.2667 988.852 66.8C990.252 68.3333 991.219 70.1667 991.752 72.3C992.352 74.4333 992.652 76.8333 992.652 79.5C992.652 82.4333 992.552 85.4 992.352 88.4C992.152 91.3333 992.019 94.2333 991.952 97.1C991.952 99.9667 992.052 102.767 992.252 105.5C992.452 108.167 992.952 110.7 993.752 113.1H983.152L981.052 106.2H980.552C979.219 108.267 977.352 110.067 974.952 111.6C972.619 113.067 969.585 113.8 965.852 113.8C963.519 113.8 961.419 113.467 959.552 112.8C957.685 112.067 956.085 111.067 954.752 109.8C953.419 108.467 952.385 106.933 951.652 105.2C950.919 103.4 950.552 101.4 950.552 99.2C950.552 96.1333 951.219 93.5667 952.552 91.5C953.952 89.3667 955.919 87.6667 958.452 86.4C961.052 85.0667 964.119 84.1667 967.652 83.7C971.252 83.1667 975.252 83 979.652 83.2C980.119 79.4667 979.852 76.8 978.852 75.2C977.852 73.5333 975.619 72.7 972.152 72.7C969.552 72.7 966.785 72.9667 963.852 73.5C960.985 74.0333 958.619 74.7333 956.752 75.6L953.652 65.9ZM970.152 103.1C972.752 103.1 974.819 102.533 976.352 101.4C977.885 100.2 979.019 98.9333 979.752 97.6V91.1C977.685 90.9 975.685 90.8667 973.752 91C971.885 91.1333 970.219 91.4333 968.752 91.9C967.285 92.3667 966.119 93.0333 965.252 93.9C964.385 94.7667 963.952 95.8667 963.952 97.2C963.952 99.0667 964.485 100.533 965.552 101.6C966.685 102.6 968.219 103.1 970.152 103.1ZM1038.96 109.9C1036.96 111.367 1034.53 112.467 1031.66 113.2C1028.86 114 1025.96 114.4 1022.96 114.4C1018.96 114.4 1015.56 113.767 1012.76 112.5C1010.03 111.233 1007.79 109.467 1006.06 107.2C1004.33 104.867 1003.06 102.067 1002.26 98.8C1001.53 95.5333 1001.16 91.9333 1001.16 88C1001.16 79.5333 1003.06 73.0333 1006.86 68.5C1010.66 63.9 1016.19 61.6 1023.46 61.6C1027.13 61.6 1030.06 61.9 1032.26 62.5C1034.53 63.1 1036.56 63.8667 1038.36 64.8L1035.26 75.4C1033.73 74.6667 1032.19 74.1 1030.66 73.7C1029.19 73.3 1027.49 73.1 1025.56 73.1C1021.96 73.1 1019.23 74.3 1017.36 76.7C1015.49 79.0333 1014.56 82.8 1014.56 88C1014.56 90.1333 1014.79 92.1 1015.26 93.9C1015.73 95.7 1016.43 97.2667 1017.36 98.6C1018.29 99.9333 1019.49 101 1020.96 101.8C1022.49 102.533 1024.26 102.9 1026.26 102.9C1028.46 102.9 1030.33 102.633 1031.86 102.1C1033.39 101.5 1034.76 100.8 1035.96 100L1038.96 109.9ZM1041.62 63H1048.52V53.6L1061.52 49.9V63H1073.72V74H1061.52V93.2C1061.52 96.6667 1061.86 99.1667 1062.52 100.7C1063.26 102.167 1064.59 102.9 1066.52 102.9C1067.86 102.9 1068.99 102.767 1069.92 102.5C1070.92 102.233 1072.02 101.833 1073.22 101.3L1075.52 111.3C1073.72 112.167 1071.62 112.9 1069.22 113.5C1066.82 114.1 1064.39 114.4 1061.92 114.4C1057.32 114.4 1053.92 113.233 1051.72 110.9C1049.59 108.5 1048.52 104.6 1048.52 99.2V74H1041.62V63ZM1153.41 110.1C1151.28 111.633 1148.54 112.733 1145.21 113.4C1141.94 114.067 1138.58 114.4 1135.11 114.4C1130.91 114.4 1126.91 113.767 1123.11 112.5C1119.38 111.167 1116.08 109.067 1113.21 106.2C1110.34 103.267 1108.04 99.5 1106.31 94.9C1104.64 90.2333 1103.81 84.6 1103.81 78C1103.81 71.1333 1104.74 65.4 1106.61 60.8C1108.54 56.1333 1111.01 52.4 1114.01 49.6C1117.08 46.7333 1120.48 44.7 1124.21 43.5C1127.94 42.2333 1131.68 41.6 1135.41 41.6C1139.41 41.6 1142.78 41.8667 1145.51 42.4C1148.31 42.9333 1150.61 43.5667 1152.41 44.3L1149.71 55.9C1148.18 55.1667 1146.34 54.6333 1144.21 54.3C1142.14 53.9667 1139.61 53.8 1136.61 53.8C1131.08 53.8 1126.61 55.7667 1123.21 59.7C1119.88 63.6333 1118.21 69.7333 1118.21 78C1118.21 81.6 1118.61 84.9 1119.41 87.9C1120.21 90.8333 1121.41 93.3667 1123.01 95.5C1124.68 97.5667 1126.71 99.2 1129.11 100.4C1131.58 101.533 1134.41 102.1 1137.61 102.1C1140.61 102.1 1143.14 101.8 1145.21 101.2C1147.28 100.6 1149.08 99.8333 1150.61 98.9L1153.41 110.1ZM1155.56 88C1155.56 79.5333 1157.62 73.0333 1161.76 68.5C1165.89 63.9 1171.69 61.6 1179.16 61.6C1183.16 61.6 1186.62 62.2333 1189.56 63.5C1192.49 64.7667 1194.92 66.5667 1196.86 68.9C1198.79 71.1667 1200.22 73.9333 1201.16 77.2C1202.16 80.4667 1202.66 84.0667 1202.66 88C1202.66 96.4667 1200.59 103 1196.46 107.6C1192.39 112.133 1186.62 114.4 1179.16 114.4C1175.16 114.4 1171.69 113.767 1168.76 112.5C1165.82 111.233 1163.36 109.467 1161.36 107.2C1159.42 104.867 1157.96 102.067 1156.96 98.8C1156.02 95.5333 1155.56 91.9333 1155.56 88ZM1168.96 88C1168.96 90.2 1169.16 92.2333 1169.56 94.1C1169.96 95.9667 1170.56 97.6 1171.36 99C1172.16 100.4 1173.19 101.5 1174.46 102.3C1175.79 103.033 1177.36 103.4 1179.16 103.4C1182.56 103.4 1185.09 102.167 1186.76 99.7C1188.42 97.2333 1189.26 93.3333 1189.26 88C1189.26 83.4 1188.49 79.7 1186.96 76.9C1185.42 74.0333 1182.82 72.6 1179.16 72.6C1175.96 72.6 1173.46 73.8 1171.66 76.2C1169.86 78.6 1168.96 82.5333 1168.96 88ZM1225.07 96.2C1225.07 98.5333 1225.37 100.233 1225.97 101.3C1226.57 102.367 1227.53 102.9 1228.87 102.9C1229.67 102.9 1230.43 102.833 1231.17 102.7C1231.97 102.567 1232.93 102.267 1234.07 101.8L1235.47 112C1234.4 112.533 1232.77 113.067 1230.57 113.6C1228.37 114.133 1226.1 114.4 1223.77 114.4C1219.97 114.4 1217.07 113.533 1215.07 111.8C1213.07 110 1212.07 107.067 1212.07 103V43H1225.07V96.2ZM1254.46 96.2C1254.46 98.5333 1254.76 100.233 1255.36 101.3C1255.96 102.367 1256.93 102.9 1258.26 102.9C1259.06 102.9 1259.83 102.833 1260.56 102.7C1261.36 102.567 1262.33 102.267 1263.46 101.8L1264.86 112C1263.79 112.533 1262.16 113.067 1259.96 113.6C1257.76 114.133 1255.49 114.4 1253.16 114.4C1249.36 114.4 1246.46 113.533 1244.46 111.8C1242.46 110 1241.46 107.067 1241.46 103V43H1254.46V96.2ZM1270.16 65.9C1272.82 64.7 1275.99 63.7667 1279.66 63.1C1283.32 62.3667 1287.16 62 1291.16 62C1294.62 62 1297.52 62.4333 1299.86 63.3C1302.19 64.1 1304.02 65.2667 1305.36 66.8C1306.76 68.3333 1307.72 70.1667 1308.26 72.3C1308.86 74.4333 1309.16 76.8333 1309.16 79.5C1309.16 82.4333 1309.06 85.4 1308.86 88.4C1308.66 91.3333 1308.52 94.2333 1308.46 97.1C1308.46 99.9667 1308.56 102.767 1308.76 105.5C1308.96 108.167 1309.46 110.7 1310.26 113.1H1299.66L1297.56 106.2H1297.06C1295.72 108.267 1293.86 110.067 1291.46 111.6C1289.12 113.067 1286.09 113.8 1282.36 113.8C1280.02 113.8 1277.92 113.467 1276.06 112.8C1274.19 112.067 1272.59 111.067 1271.26 109.8C1269.92 108.467 1268.89 106.933 1268.16 105.2C1267.42 103.4 1267.06 101.4 1267.06 99.2C1267.06 96.1333 1267.72 93.5667 1269.06 91.5C1270.46 89.3667 1272.42 87.6667 1274.96 86.4C1277.56 85.0667 1280.62 84.1667 1284.16 83.7C1287.76 83.1667 1291.76 83 1296.16 83.2C1296.62 79.4667 1296.36 76.8 1295.36 75.2C1294.36 73.5333 1292.12 72.7 1288.66 72.7C1286.06 72.7 1283.29 72.9667 1280.36 73.5C1277.49 74.0333 1275.12 74.7333 1273.26 75.6L1270.16 65.9ZM1286.66 103.1C1289.26 103.1 1291.32 102.533 1292.86 101.4C1294.39 100.2 1295.52 98.9333 1296.26 97.6V91.1C1294.19 90.9 1292.19 90.8667 1290.26 91C1288.39 91.1333 1286.72 91.4333 1285.26 91.9C1283.79 92.3667 1282.62 93.0333 1281.76 93.9C1280.89 94.7667 1280.46 95.8667 1280.46 97.2C1280.46 99.0667 1280.99 100.533 1282.06 101.6C1283.19 102.6 1284.72 103.1 1286.66 103.1ZM1320.07 43H1333.07V67H1333.47C1334.87 65.4 1336.67 64.1333 1338.87 63.2C1341.07 62.2667 1343.5 61.8 1346.17 61.8C1352.17 61.8 1356.73 63.8667 1359.87 68C1363.07 72.0667 1364.67 78.3 1364.67 86.7C1364.67 95.7 1362.43 102.533 1357.97 107.2C1353.57 111.867 1347.5 114.2 1339.77 114.2C1335.5 114.2 1331.6 113.833 1328.07 113.1C1324.53 112.433 1321.87 111.667 1320.07 110.8V43ZM1342.37 72.8C1339.97 72.8 1338 73.4333 1336.47 74.7C1335 75.9 1333.87 77.6667 1333.07 80V101.8C1334.13 102.333 1335.27 102.7 1336.47 102.9C1337.73 103.1 1339.07 103.2 1340.47 103.2C1344 103.2 1346.67 101.933 1348.47 99.4C1350.33 96.8 1351.27 92.7 1351.27 87.1C1351.27 77.5667 1348.3 72.8 1342.37 72.8ZM1371.28 88C1371.28 79.5333 1373.35 73.0333 1377.48 68.5C1381.61 63.9 1387.41 61.6 1394.88 61.6C1398.88 61.6 1402.35 62.2333 1405.28 63.5C1408.21 64.7667 1410.65 66.5667 1412.58 68.9C1414.51 71.1667 1415.95 73.9333 1416.88 77.2C1417.88 80.4667 1418.38 84.0667 1418.38 88C1418.38 96.4667 1416.31 103 1412.18 107.6C1408.11 112.133 1402.35 114.4 1394.88 114.4C1390.88 114.4 1387.41 113.767 1384.48 112.5C1381.55 111.233 1379.08 109.467 1377.08 107.2C1375.15 104.867 1373.68 102.067 1372.68 98.8C1371.75 95.5333 1371.28 91.9333 1371.28 88ZM1384.68 88C1384.68 90.2 1384.88 92.2333 1385.28 94.1C1385.68 95.9667 1386.28 97.6 1387.08 99C1387.88 100.4 1388.91 101.5 1390.18 102.3C1391.51 103.033 1393.08 103.4 1394.88 103.4C1398.28 103.4 1400.81 102.167 1402.48 99.7C1404.15 97.2333 1404.98 93.3333 1404.98 88C1404.98 83.4 1404.21 79.7 1402.68 76.9C1401.15 74.0333 1398.55 72.6 1394.88 72.6C1391.68 72.6 1389.18 73.8 1387.38 76.2C1385.58 78.6 1384.68 82.5333 1384.68 88ZM1454.99 75.2C1452.92 74.4667 1451.06 74.1 1449.39 74.1C1447.06 74.1 1445.09 74.7333 1443.49 76C1441.96 77.2 1440.92 78.7667 1440.39 80.7V113H1427.39V63H1437.49L1438.99 69.6H1439.39C1440.52 67.1333 1442.06 65.2333 1443.99 63.9C1445.92 62.5667 1448.19 61.9 1450.79 61.9C1452.52 61.9 1454.49 62.2667 1456.69 63L1454.99 75.2ZM1462.15 65.9C1464.81 64.7 1467.98 63.7667 1471.65 63.1C1475.31 62.3667 1479.15 62 1483.15 62C1486.61 62 1489.51 62.4333 1491.85 63.3C1494.18 64.1 1496.01 65.2667 1497.35 66.8C1498.75 68.3333 1499.71 70.1667 1500.25 72.3C1500.85 74.4333 1501.15 76.8333 1501.15 79.5C1501.15 82.4333 1501.05 85.4 1500.85 88.4C1500.65 91.3333 1500.51 94.2333 1500.45 97.1C1500.45 99.9667 1500.55 102.767 1500.75 105.5C1500.95 108.167 1501.45 110.7 1502.25 113.1H1491.65L1489.55 106.2H1489.05C1487.71 108.267 1485.85 110.067 1483.45 111.6C1481.11 113.067 1478.08 113.8 1474.35 113.8C1472.01 113.8 1469.91 113.467 1468.05 112.8C1466.18 112.067 1464.58 111.067 1463.25 109.8C1461.91 108.467 1460.88 106.933 1460.15 105.2C1459.41 103.4 1459.05 101.4 1459.05 99.2C1459.05 96.1333 1459.71 93.5667 1461.05 91.5C1462.45 89.3667 1464.41 87.6667 1466.95 86.4C1469.55 85.0667 1472.61 84.1667 1476.15 83.7C1479.75 83.1667 1483.75 83 1488.15 83.2C1488.61 79.4667 1488.35 76.8 1487.35 75.2C1486.35 73.5333 1484.11 72.7 1480.65 72.7C1478.05 72.7 1475.28 72.9667 1472.35 73.5C1469.48 74.0333 1467.11 74.7333 1465.25 75.6L1462.15 65.9ZM1478.65 103.1C1481.25 103.1 1483.31 102.533 1484.85 101.4C1486.38 100.2 1487.51 98.9333 1488.25 97.6V91.1C1486.18 90.9 1484.18 90.8667 1482.25 91C1480.38 91.1333 1478.71 91.4333 1477.25 91.9C1475.78 92.3667 1474.61 93.0333 1473.75 93.9C1472.88 94.7667 1472.45 95.8667 1472.45 97.2C1472.45 99.0667 1472.98 100.533 1474.05 101.6C1475.18 102.6 1476.71 103.1 1478.65 103.1ZM1506.86 63H1513.76V53.6L1526.76 49.9V63H1538.96V74H1526.76V93.2C1526.76 96.6667 1527.09 99.1667 1527.76 100.7C1528.49 102.167 1529.82 102.9 1531.76 102.9C1533.09 102.9 1534.22 102.767 1535.16 102.5C1536.16 102.233 1537.26 101.833 1538.46 101.3L1540.76 111.3C1538.96 112.167 1536.86 112.9 1534.46 113.5C1532.06 114.1 1529.62 114.4 1527.16 114.4C1522.56 114.4 1519.16 113.233 1516.96 110.9C1514.82 108.5 1513.76 104.6 1513.76 99.2V74H1506.86V63ZM1548.12 63H1561.12V113H1548.12V63ZM1546.22 48.9C1546.22 46.9667 1546.92 45.3333 1548.32 44C1549.79 42.6 1551.79 41.9 1554.32 41.9C1556.85 41.9 1558.89 42.6 1560.42 44C1562.02 45.3333 1562.82 46.9667 1562.82 48.9C1562.82 50.8333 1562.02 52.4667 1560.42 53.8C1558.89 55.0667 1556.85 55.7 1554.32 55.7C1551.79 55.7 1549.79 55.0667 1548.32 53.8C1546.92 52.4667 1546.22 50.8333 1546.22 48.9ZM1591.08 89.2L1592.78 96.9H1593.28L1594.68 89L1603.18 63H1617.18L1596.28 113.5H1588.38L1566.68 63H1581.78L1591.08 89.2ZM1660.75 108.7C1658.75 110.3 1656.02 111.667 1652.55 112.8C1649.15 113.867 1645.52 114.4 1641.65 114.4C1633.58 114.4 1627.68 112.067 1623.95 107.4C1620.22 102.667 1618.35 96.2 1618.35 88C1618.35 79.2 1620.45 72.6 1624.65 68.2C1628.85 63.8 1634.75 61.6 1642.35 61.6C1644.88 61.6 1647.35 61.9333 1649.75 62.6C1652.15 63.2667 1654.28 64.3667 1656.15 65.9C1658.02 67.4333 1659.52 69.5 1660.65 72.1C1661.78 74.7 1662.35 77.9333 1662.35 81.8C1662.35 83.2 1662.25 84.7 1662.05 86.3C1661.92 87.9 1661.68 89.5667 1661.35 91.3H1631.35C1631.55 95.5 1632.62 98.6667 1634.55 100.8C1636.55 102.933 1639.75 104 1644.15 104C1646.88 104 1649.32 103.6 1651.45 102.8C1653.65 101.933 1655.32 101.067 1656.45 100.2L1660.75 108.7ZM1642.15 72C1638.75 72 1636.22 73.0333 1634.55 75.1C1632.95 77.1 1631.98 79.8 1631.65 83.2H1650.25C1650.52 79.6 1649.95 76.8333 1648.55 74.9C1647.22 72.9667 1645.08 72 1642.15 72Z" fill="white"></path><g clip-path="url(#clip1_176_45)"><path d="M405.316 0H316.895V35.3684H405.316V0Z" fill="white"></path><path d="M179.842 0H144.474V114.947H179.842V0Z" fill="white"></path><path d="M237.316 0H201.947V168H237.316V0Z" fill="white"></path><path d="M122.368 0H87V168H122.368V0Z" fill="white"></path><path d="M352.263 57.4736H316.895V168H352.263V57.4736Z" fill="white"></path><path d="M294.789 0H259.421V35.3684H294.789V0Z" fill="white"></path><path d="M294.789 57.4736H259.421V168H294.789V57.4736Z" fill="white"></path></g></g><defs><clipPath id="clip0_176_45"><rect width="1669" height="168" fill="white"></rect></clipPath><clipPath id="clip1_176_45"><rect width="318.316" height="168" fill="white" transform="translate(87)"></rect></clipPath></defs></svg>